<?xml version="1.0" standalone="no"?>
<!DOCTYPE svg PUBLIC "-//W3C//DTD SVG 20010904//EN"
 "http://www.w3.org/TR/2001/REC-SVG-20010904/DTD/svg10.dtd">
<svg version="1.0" xmlns="http://www.w3.org/2000/svg"
 width="315.000000pt" height="315.000000pt" viewBox="0 0 315.000000 315.000000"
 preserveAspectRatio="xMidYMid meet">
<metadata>
Created by potrace 1.14, written by Peter Selinger 2001-2017
</metadata>
<g transform="translate(0.000000,315.000000) scale(0.100000,-0.100000)"
fill="#000000" stroke="none">
<path d="M182 2890 c-51 -23 -76 -49 -103 -106 -18 -41 -19 -70 -16 -971 l2
-929 28 -42 c15 -23 46 -54 69 -69 l42 -28 570 0 c369 0 574 -4 578 -10 14
-18 -1 -106 -23 -143 -54 -91 -93 -104 -300 -105 l-167 -1 1 -123 0 -123 706
2 706 3 1 121 2 121 -167 0 c-181 0 -215 8 -264 57 -39 39 -57 79 -63 141 -5
49 -4 55 13 56 10 0 270 2 578 2 451 2 565 5 585 16 42 23 81 64 101 108 18
40 19 76 19 950 0 559 -4 921 -10 942 -14 51 -50 97 -95 123 l-40 23 -1355 2
c-1325 2 -1356 2 -1398 -17z m2592 -301 l21 -25 0 -684 c-1 -377 -4 -695 -8
-707 -4 -11 -15 -24 -25 -28 -9 -3 -548 -6 -1196 -6 l-1179 0 -21 21 c-21 20
-21 25 -22 710 -1 737 -2 720 46 738 11 4 546 7 1191 7 l1171 -1 22 -25z"/>
</g>
</svg>
